# AST/ASF file generated using VICON BodyLanguage
# -----------------------------------------------
:version 1.10
:name VICON
:units
  mass 1.0
  length 0.45
  angle deg
:documentation
   .ast/.asf automatically generated from VICON data using
   VICON BodyBuilder and BodyLanguage model FoxedUp or BRILLIANT.MOD
:root
   order TX TY TZ RX RY RZ
   axis XYZ
   position 0 0 0  
   orientation 0 0 0 
:bonedata
  begin
     id 1 
     name lhipjoint
     direction 0.57768 -0.667037 0.470475 
     length 2.36008 
     axis 0 0 0  XYZ
  end
  begin
     id 2 
     name lfemur
     direction 0.34202 -0.939693 0  
     length 6.97235  
     axis 0 0 20  XYZ
    dof rx ry rz
    limits (-160.0 20.0)
           (-70.0 70.0)
           (-60.0 70.0)
  end
  begin
     id 3 
     name ltibia
     direction 0.34202 -0.939693 0   
     length 6.93428   
     axis 0 0 20   XYZ
    dof rx
    limits (-10.0 170.0)
  end
  begin
     id 4 
     name lfoot
     direction 0.133018 -0.365463 0.921272   
     length 2.18603   
     axis -90 7.62852e-016 20   XYZ
    dof rx rz
    limits (-45.0 90.0)
           (-70.0 20.0)
  end
  begin
     id 5 
     name ltoes
     direction 1.53519e-011 -4.22055e-011 1   
     length 1.07924   
     axis -90 7.62852e-016 20   XYZ
    dof rx
    limits (-90.0 20.0)
  end
  begin
     id 6 
     name rhipjoint
     direction -0.577712 -0.667019 0.470462   
     length 2.36015  
     axis 0 0 0  XYZ 
  end
  begin
     id 7 
     name rfemur
     direction -0.34202 -0.939693 0   
     length 6.71195   
     axis 0 0 -20   XYZ
    dof rx ry rz
    limits (-160.0 20.0)
           (-70.0 70.0)
           (-70.0 60.0)
  end
  begin
     id 8 
     name rtibia
     direction -0.34202 -0.939693 0   
     length 7.04592   
     axis 0 0 -20   XYZ
    dof rx
    limits (-10.0 170.0)
 end
 begin
     id 9 
     name rfoot
     direction -0.113796 -0.312651 0.943027   
     length 2.03846  
     axis -90 -7.62852e-016 -20   XYZ
    dof rx rz
    limits (-45.0 90.0)
           (-20.0 70.0)
  end
  begin
     id 10 
     name rtoes
     direction -1.53586e-011 -4.218e-011 1   
     length 1.01562   
     axis -90 -7.62852e-016 -20   XYZ
    dof rx
    limits (-90.0 20.0)
  end
  begin
     id 11 
     name lowerback
     direction -0.0417299 0.991937 -0.119667   
     length 2.05257   
     axis 0 0 0   XYZ
    dof rx ry rz
    limits (-20.0 45.0)
           (-30.0 30.0)
           (-30.0 30.0)
  end
  begin
     id 12 
     name upperback
     direction -0.00017666 0.999999 0.00105178   
     length 2.05693   
     axis 0 0 0   XYZ
    dof rx ry rz
    limits (-20.0 45.0)
           (-30.0 30.0)
           (-30.0 30.0)
  end
  begin
     id 13 
     name thorax
     direction 0.0185169 0.998203 0.0569866   
     length 2.0932   
     axis 0 0 0   XYZ
    dof rx ry rz
    limits (-20.0 45.0)
           (-30.0 30.0)
           (-30.0 30.0)
  end
  begin
     id 14 
     name lowerneck
     direction -0.0212406 0.982645 0.184277   
     length 1.72509   
     axis 0 0 0   XYZ
    dof rx ry rz
    limits (-20.0 45.0)
           (-30.0 30.0)
           (-30.0 30.0)
  end
  begin
     id 15 
     name upperneck
     direction 0.00528579 0.965323 -0.261004   
     length 1.76294   
     axis 0 0 0   XYZ
    dof rx ry rz
    limits (-20.0 45.0)
           (-30.0 30.0)
           (-30.0 30.0)
  end
  begin
     id 16
     name head
     direction 0.00695421 0.994078 -0.108445  
     length 1.78678  
     axis 0 0 0   XYZ
    dof rx ry rz
    limits (-20.0 45.0)
           (-30.0 30.0)
           (-30.0 30.0)
  end
  begin
     id 17 
     name lclavicle
     direction 0.97277 0.211305 -0.095232  
     length 3.84823  
     axis 0 0 0   XYZ
    dof ry rz
    limits (-20.0 10.0)
           (0.0 20.0)
  end
  begin
     id 18 
     name lhumerus
     direction 1 -4.48957e-011 -1.98313e-027   
     length 4.97185   
     axis 180 -30 -90   XYZ
    dof rx ry rz
    limits (-60.0 90.0)
           (-90.0 90.0)
           (-90.0 90.0)
  end
  begin
     id 19
     name lradius
     direction 1 -4.4898e-011 7.31063e-027   
     length 3.35811   
     axis 180 -30 -90   XYZ
    dof rx
    limits (-10.0 170.0)
  end
  begin
     id 20
     name lwrist
     direction 1 -4.48938e-011 9.95048e-027   
     length 1.67905   
     axis -8.75986e-015 90 90   XYZ
    dof ry
    limits (-180.0 0.0)
 end
  begin
     id 21 
     name lhand
     direction 1 -4.4901e-011 1.9901e-026   
     length 0.622776   
     axis -1.26985e-014 90 90   XYZ
    dof rx rz
    limits (-90.0 90.0)
           (-45.0 45.0)
  end
  begin
     id 22 
     name lfingers
     direction 1 -4.48961e-011 3.98019e-026   
     length 0.502098   
     axis -2.5397e-014 90 90   XYZ
    dof rx
    limits (0.0 90.0)
  end
  begin
     id 23
     name lthumb
     direction 0.707107 -6.34933e-011 0.707107   
     length 0.720915   
     axis -90 45 2.85299e-015   XYZ
    dof rx rz
    limits (-45.0 45.0)
           (-45.0 45.0)
  end
  begin
     id 24 
     name rclavicle
     direction -0.990867 0.133739 -0.0172226   
     length 3.78845  
     axis 0 0 0   XYZ 
    dof ry rz
    limits (-10.0 20.0)
           (-20.0 0.0)
  end
  begin
     id 25 
     name rhumerus
     direction -1 -4.48972e-011 -1.99267e-027  
     length 4.96493   
     axis 180 30 90   XYZ
    dof rx ry rz
    limits (-90.0 60.0)
           (-90.0 90.0)
           (-90.0 90.0)
  end
  begin
     id 26 
     name rradius
     direction -1 -4.48969e-011 8.96093e-027   
     length 3.34929   
     axis 180 30 90   XYZ
    dof rx
    limits (-10.0 170.0)
  end
  begin
     id 27 
     name rwrist
     direction -1 -4.48953e-011 9.95048e-027   
     length 1.67464   
     axis -8.75986e-015 -90 -90   XYZ
    dof ry
    limits (-180.0 0.0)
  end
  begin
     id 28
     name rhand
     direction -1 -4.49001e-011 1.9901e-026   
     length 0.638041   
     axis -1.26985e-014 -90 -90   XYZ
    dof rx rz
    limits (-90.0 90.0)
           (-45.0 45.0)
  end
  begin
     id 29
     name rfingers
     direction -1 -4.48967e-011 3.98019e-026   
     length 0.514405   
     axis -2.5397e-014 -90 -90   XYZ
    dof rx
    limits (0.0 90.0)
  end
  begin
     id 30
     name rthumb
     direction -0.707107 -6.34904e-011 0.707107   
     length 0.738586   
     axis -90 -45 -2.85299e-015   XYZ
    dof rx rz
    limits (-45.0 45.0)
           (-45.0 45.0)
  end
:hierarchy
  begin
    root lhipjoint rhipjoint lowerback
    lhipjoint lfemur
    lfemur ltibia
    ltibia lfoot
    lfoot ltoes
    rhipjoint rfemur
    rfemur rtibia
    rtibia rfoot
    rfoot rtoes
    lowerback upperback
    upperback thorax
    thorax lowerneck lclavicle rclavicle
    lowerneck upperneck
    upperneck head
    lclavicle lhumerus
    lhumerus lradius
    lradius lwrist
    lwrist lhand lthumb
    lhand lfingers
    rclavicle rhumerus
    rhumerus rradius
    rradius rwrist
    rwrist rhand rthumb
    rhand rfingers
  end

#!OML:ASF E:\Mandelcareful walks\Project 1\Capture day 1\Session 1\Subject1.ASF
:FULLY-SPECIFIED
:DEGREES
69
root -2.52248 16.8558 -0.616868 137.412 85.3526 132.454
lowerback -6.14698 -0.376319 -6.84537
upperback 0.614469 0.016798 0.12468
thorax 4.0969 -0.142803 3.97982
lowerneck -24.4752 2.05575 -1.46982
upperneck 28.2218 4.47637 -1.61666
head 13.6731 1.66375 0.470566
rclavicle 8.10048e-015 1.40143e-014
rhumerus -28.628 -15.0204 -81.3346
rradius 25.1598
rwrist -2.49588
rhand -10.2415 -30.729
rfingers 7.12502
rthumb 15.7511 -60.1081
lclavicle 8.10048e-015 1.40143e-014
lhumerus -26.5511 2.39636 91.824
lradius 20.4571
lwrist 1.24759
lhand -21.4236 -11.6086
lfingers 7.12502
lthumb 4.96538 18.3133
rfemur -4.51403 1.7704 10.3358
rtibia 16.0122
rfoot -19.2824 -26.0556
rtoes 4.06239
lfemur -6.27488 -7.92943 -18.814
ltibia 20.8964
lfoot -23.9162 22.4845
ltoes 6.59473
70
root -2.51768 16.856 -0.617545 137.858 85.3401 132.896
lowerback -6.22188 -0.35019 -6.79717
upperback 0.618568 0.0544021 0.116525
thorax 4.13884 -0.124486 3.94802
lowerneck -24.316 2.10092 -1.43336
upperneck 28.144 4.52423 -1.62852
head 13.6085 1.69107 0.465786
rclavicle -1.42255e-015 -3.97569e-016
rhumerus -28.6236 -15.1286 -81.2807
rradius 25.13
rwrist -2.43976
rhand -10.2604 -31.1563
rfingers 7.12502
rthumb 15.7328 -60.5368
lclavicle -1.42255e-015 -3.97569e-016
lhumerus -26.5936 2.24048 91.8868
lradius 20.5329
lwrist 1.40552
lhand -21.4417 -11.8357
lfingers 7.12502
lthumb 4.94789 18.0865
rfemur -4.52443 1.62041 10.3342
rtibia 16.0506
rfoot -19.2606 -25.9117
rtoes 3.79976
lfemur -6.26285 -7.92501 -18.7999
ltibia 20.8977
lfoot -23.9627 22.3767
ltoes 6.45042
71
root -2.51368 16.8547 -0.616061 138.466 85.2596 133.5
lowerback -6.25296 -0.36321 -6.82993
upperback 0.593967 0.0415307 0.112487
thorax 4.1323 -0.130584 3.96109
lowerneck -24.2018 2.15467 -1.36591
upperneck 28.1507 4.58905 -1.66612
head 13.5907 1.72397 0.450424
rclavicle 4.7025e-015 6.95746e-015
rhumerus -28.6483 -15.0444 -81.2586
rradius 25.1236
rwrist -2.47379
rhand -10.2878 -31.1339
rfingers 7.12502
rthumb 15.7065 -60.5164
lclavicle 4.7025e-015 6.95746e-015
lhumerus -26.6357 2.11803 91.9191
lradius 20.5613
lwrist 1.4977
lhand -21.4165 -11.8211
lfingers 7.12502
lthumb 4.97224 18.1006
rfemur -4.53791 1.56951 10.3151
rtibia 16.1264
rfoot -19.2478 -25.999
rtoes 4.09126
lfemur -6.2463 -7.98633 -18.8067
ltibia 20.8692
lfoot -23.9384 22.287
ltoes 6.3137
72
root -2.51201 16.853 -0.613325 138.604 85.1509 133.643
lowerback -6.25056 -0.400435 -6.94133
upperback 0.609716 0.00177432 0.0985533
thorax 4.1527 -0.153626 4.0054
lowerneck -24.1979 2.17888 -1.39546
upperneck 28.1174 4.60913 -1.59733
head 13.5726 1.73955 0.485661
rclavicle -1.22377e-015 -1.0138e-014
rhumerus -28.6721 -14.6935 -81.3915
rradius 25.3788
rwrist -2.66828
rhand -10.1287 -31.1584
rfingers 7.12502
rthumb 15.8597 -60.5289
lclavicle -1.22377e-015 -1.0138e-014
lhumerus -26.5652 2.20629 91.8653
lradius 20.528
lwrist 1.40311
lhand -21.3764 -11.8774
lfingers 7.12502
lthumb 5.01092 18.0433
rfemur -4.53613 1.71466 10.2719
rtibia 16.2285
rfoot -19.4662 -26.203
rtoes 4.56697
lfemur -6.23277 -7.99888 -18.8567
ltibia 20.8263
lfoot -23.8947 22.2407
ltoes 6.43512
73
root -2.51227 16.851 -0.611159 137.877 85.0556 132.941
lowerback -6.25691 -0.427013 -7.09495
upperback 0.684496 -0.0167059 0.0669023
thorax 4.23772 -0.170742 4.05704
lowerneck -24.2632 2.21696 -1.31746
upperneck 28.0594 4.64944 -1.66427
head 13.5659 1.75466 0.453719
rclavicle 1.03741e-015 8.64713e-015
rhumerus -28.6448 -14.3002 -81.5908
rradius 25.7085
rwrist -2.88903
rhand -9.94275 -31.6595
rfingers 7.12502
rthumb 16.0388 -61.0157
lclavicle 1.03741e-015 8.64713e-015
lhumerus -26.4064 2.34467 91.784
lradius 20.508
lwrist 1.35304
lhand -21.3407 -12.0048
lfingers 7.12502
lthumb 5.04543 17.9151
rfemur -4.5438 1.84788 10.1736
rtibia 16.3195
rfoot -19.6104 -26.3112
rtoes 4.55354
lfemur -6.20162 -8.02163 -18.9693
ltibia 20.7953
lfoot -23.8778 22.3041
ltoes 6.43897
74
root -2.51069 16.8466 -0.61036 137.056 84.9068 132.165
lowerback -6.23662 -0.45585 -7.27529
upperback 0.721861 -0.0395033 0.0362374
thorax 4.26928 -0.18778 4.1242
lowerneck -24.2235 2.25579 -1.18615
upperneck 28.0813 4.71917 -1.85049
head 13.5774 1.7735 0.371191
rclavicle 2.3792e-015 1.30204e-014
rhumerus -28.6262 -14 -81.6603
rradius 25.7796
rwrist -3.06438
rhand -10.0146 -31.8726
rfingers 7.12502
rthumb 15.9696 -61.2343
lclavicle 2.3792e-015 1.30204e-014
lhumerus -26.3794 2.37736 91.7634
lradius 20.5641
lwrist 1.46674
lhand -21.2584 -12.0896
lfingers 7.12502
lthumb 5.12483 17.8284
rfemur -4.49958 1.76999 9.99835
rtibia 16.3641
rfoot -19.624 -26.2855
rtoes 4.46176
lfemur -6.15032 -8.05301 -19.1506
ltibia 20.7923
lfoot -23.7868 22.3781
ltoes 6.16843
75
root -2.50844 16.8459 -0.609594 137.981 84.892 133.092
lowerback -6.22641 -0.448049 -7.22495
upperback 0.699044 -0.0363317 0.0646783
thorax 4.23889 -0.183816 4.12595
lowerneck -24.0532 2.25827 -1.18825
upperneck 28.1118 4.75659 -1.93155
head 13.5584 1.7822 0.344946
rclavicle 1.01567e-014 -3.8763e-015
rhumerus -28.6694 -14.0054 -81.5522
rradius 25.7272
rwrist -3.0818
rhand -10.256 -31.5898
rfingers 7.12502
rthumb 15.7371 -60.97
lclavicle 1.01567e-014 -3.8763e-015
lhumerus -26.4158 2.45746 91.7646
lradius 20.5829
lwrist 1.44543
lhand -21.2285 -12.1253
lfingers 7.12502
lthumb 5.15377 17.792
rfemur -4.47565 1.68953 10.0539
rtibia 16.38
rfoot -19.6657 -26.28
rtoes 4.46238
lfemur -6.16355 -8.02048 -19.0983
ltibia 20.8057
lfoot -23.7231 22.4054
ltoes 5.85679
76
root -2.50769 16.8452 -0.607976 139.325 84.9704 134.43
lowerback -6.26964 -0.403812 -7.06847
upperback 0.698434 0.0120086 0.0980024
thorax 4.25588 -0.157474 4.07759
lowerneck -23.9143 2.23672 -1.19782
upperneck 28.2108 4.75541 -1.97291
head 13.5729 1.77789 0.329653
rclavicle 9.34288e-015 -1.23246e-014
rhumerus -28.6508 -14.2399 -81.417
rradius 25.5991
rwrist -2.93061
rhand -10.3979 -31.4838
rfingers 7.12502
rthumb 15.6005 -60.8747
lclavicle 9.34288e-015 -1.23246e-014
lhumerus -26.3836 2.47347 91.7485
lradius 20.549
lwrist 1.3747
lhand -21.3648 -11.9071
lfingers 7.12502
lthumb 5.02208 18.0134
rfemur -4.45112 1.77932 10.2273
rtibia 16.3781
rfoot -19.8174 -26.2767
rtoes 4.86481
lfemur -6.1881 -8.02891 -18.9311
ltibia 20.8218
lfoot -23.8022 22.4732
ltoes 5.76388
77
root -2.50648 16.8424 -0.60664 138.993 84.903 134.119
lowerback -6.29938 -0.392408 -7.12059
upperback 0.719426 0.0367382 0.0577962
thorax 4.29192 -0.147567 4.06738
lowerneck -23.9377 2.2482 -1.07881
upperneck 28.4584 4.78176 -2.06406
head 13.6892 1.7877 0.281905
rclavicle 5.65915e-015 9.14409e-015
rhumerus -28.5735 -14.1677 -81.432
rradius 25.4975
rwrist -2.98778
rhand -10.3962 -32.0535
rfingers 7.12502
rthumb 15.6021 -61.4443
lclavicle 5.65915e-015 9.14409e-015
lhumerus -26.3451 2.38173 91.6921
lradius 20.5327
lwrist 1.4422
lhand -21.5425 -11.7308
lfingers 7.12502
lthumb 4.8505 18.1937
rfemur -4.37057 1.92453 10.1683
rtibia 16.3477
rfoot -20.0305 -26.2676
rtoes 5.2481
lfemur -6.17445 -8.09612 -18.9979
ltibia 20.8428
lfoot -23.8526 22.4665
ltoes 6.13383
78
root -2.50468 16.8446 -0.606121 138.695 84.7734 133.835
lowerback -6.30524 -0.43036 -7.20313
upperback 0.766097 -0.00245175 0.0112947
thorax 4.3495 -0.171436 4.06126
lowerneck -24.1075 2.36601 -0.853128
upperneck 28.7271 4.93148 -2.18618
head 13.8508 1.85458 0.22879
rclavicle -3.8266e-015 9.44227e-015
rhumerus -28.4789 -13.9839 -81.5018
rradius 25.545
rwrist -3.07135
rhand -10.3608 -32.5529
rfingers 7.12502
rthumb 15.6361 -61.941
lclavicle -3.8266e-015 9.44227e-015
lhumerus -26.2213 2.49626 91.566
lradius 20.4915
lwrist 1.42082
lhand -21.5411 -11.8992
lfingers 7.12502
lthumb 4.85191 18.0252
rfemur -4.31528 1.92083 10.0589
rtibia 16.3051
rfoot -19.9992 -26.3919
rtoes 5.09452
lfemur -6.17737 -8.09978 -19.1112
ltibia 20.8676
lfoot -23.7567 22.2772
ltoes 6.6388
79
root -2.50679 16.8479 -0.607142 139.262 84.7485 134.429
lowerback -6.18228 -0.438451 -7.10723
upperback 0.753746 -0.0306429 -0.00859214
thorax 4.26987 -0.179725 3.98331
lowerneck -24.1116 2.54553 -0.635101
upperneck 28.9226 5.13431 -2.21191
head 13.9442 1.96191 0.222483
rclavicle 7.37367e-015 1.30204e-014
rhumerus -28.5137 -13.989 -81.4938
rradius 25.5819
rwrist -3.00559
rhand -10.5369 -32.4519
rfingers 7.12502
rthumb 15.4666 -61.8532
lclavicle 7.37367e-015 1.30204e-014
lhumerus -26.1767 2.72096 91.4205
lradius 20.4502
lwrist 1.28572
lhand -21.661 -12.2723
lfingers 7.12502
lthumb 4.73612 17.6548
rfemur -4.30317 1.74738 10.0774
rtibia 16.2988
rfoot -19.7878 -26.4474
rtoes 4.99334
lfemur -6.16008 -8.12416 -19.0931
ltibia 20.8658
lfoot -23.6997 22.1512
ltoes 6.72568
80
root -2.50912 16.8468 -0.604851 140.643 84.8218 135.877
lowerback -5.86497 -0.396044 -6.91797
upperback 0.608727 -0.0211556 0.0104827
thorax 3.93633 -0.155767 3.8969
lowerneck -23.9143 2.63817 -0.558698
upperneck 29.1564 5.24643 -2.15172
head 14.0042 2.0321 0.255113
rclavicle -1.74558e-015 2.26615e-014
rhumerus -28.8513 -13.9781 -81.4049
rradius 25.6617
rwrist -3.01384
rhand -10.7402 -32.2364
rfingers 7.12502
rthumb 15.2708 -61.6527
lclavicle -1.74558e-015 2.26615e-014
lhumerus -26.3785 2.75051 91.3396
lradius 20.46
lwrist 1.26423
lhand -22.0573 -12.7141
lfingers 7.12502
lthumb 4.35341 17.2211
rfemur -4.24375 1.86259 10.2601
rtibia 16.3219
rfoot -19.858 -26.5746
rtoes 5.21076
lfemur -6.0888 -8.24129 -18.921
ltibia 20.833
lfoot -23.7528 22.1482
ltoes 6.69886
81
root -2.50743 16.8448 -0.600194 141.714 84.8829 137.026
lowerback -5.92795 -0.36091 -6.84508
upperback 0.722049 0.0252096 0.0894074
thorax 4.08474 -0.140681 3.94295
lowerneck -23.9397 2.63502 -0.666224
upperneck 29.3621 5.30922 -2.14672
head 14.0964 2.04684 0.290233
rclavicle 3.90736e-015 3.27995e-015
rhumerus -28.7616 -13.954 -81.2963
rradius 25.6839
rwrist -3.00589
rhand -10.6414 -32.0404
rfingers 7.12502
rthumb 15.3659 -61.4494
lclavicle 3.90736e-015 3.27995e-015
lhumerus -26.1705 2.66258 91.3913
lradius 20.5093
lwrist 1.54623
lhand -21.9709 -12.6255
lfingers 7.12502
lthumb 4.43687 17.308
rfemur -4.14253 2.13603 10.4224
rtibia 16.3071
rfoot -20.0052 -26.7948
rtoes 5.36767
lfemur -5.99815 -8.35491 -18.7643
ltibia 20.8135
lfoot -23.7772 22.1311
ltoes 6.82963
82
root -2.50963 16.8456 -0.600866 141.032 84.9438 136.384
lowerback -5.65622 -0.314179 -6.76689
upperback 0.608876 0.0553292 0.106002
thorax 3.80884 -0.112013 3.91799
lowerneck -23.86 2.69007 -0.678487
upperneck 29.7463 5.46127 -2.19716
head 14.2509 2.10486 0.305173
rclavicle 2.08724e-015 1.51076e-014
rhumerus -28.8416 -13.7139 -81.1997
rradius 25.5748
rwrist -3.11454
rhand -10.491 -31.9122
rfingers 7.12502
rthumb 15.5107 -61.31
lclavicle 2.08724e-015 1.51076e-014
lhumerus -26.3073 2.88091 91.2797
lradius 20.6114
lwrist 1.58295
lhand -21.565 -12.0928
lfingers 7.12502
lthumb 4.82881 17.8322
rfemur -4.13421 1.98846 10.3898
rtibia 16.247
rfoot -19.8509 -26.6062
rtoes 5.16017
lfemur -5.93091 -8.4232 -18.7654
ltibia 20.8121
lfoot -23.938 22.0762
ltoes 7.37202
